<?xml version="1.0" encoding="utf-8"?><svg version="1.1" preserveAspectRatio="xMidYMid" xml:space="preserve" width="997.36pt" height="629.1608878000001pt" viewBox="6.4 -8.5499878 997.36 629.1608878000001" xmlns="http://www.w3.org/2000/svg" xmlns:xlink="http://www.w3.org/1999/xlink"><desc xmlns:eadoc="http://www.siemens.com/eauml/doc"><eadoc:guid>EAID_597201E8_B839_41ec_8A7A_E0F75D232346</eadoc:guid><eadoc:name>CCCEV_v3-overview-attributes</eadoc:name><eadoc:type>Diagram</eadoc:type><eadoc:note></eadoc:note></desc><g transform="matrix(1 0 0 -1 0 790)"><g stroke="#000000" fill="none" fill-rule="evenodd" stroke-width="1" stroke-linecap="round" stroke-linejoin="round" stroke-miterlimit="3" letter-spacing="normal" font-weight="normal" font-style="normal" baseline-shift="0"><g transform="matrix(0.6 0 0 0.6 0 790.549988)"><g transform="matrix(1.2 0 0 -1.199454 0 0)" font-family="CalibriUnicode" font-size="13"><path fill="#CACACA" stroke="none" d="M653 228C653 223 653 223 658 223H879C884 223 884 223 884 228V417C884 422 884 422 879 422H658C653 422 653 422 653 417V228" /><path stroke="none" fill="#FDFAF7" d="M650 225C650 220 650 220 655 220H876C881 220 881 220 881 225V414C881 419 881 419 876 419H655C650 419 650 419 650 414V225" /><path stroke="#5A5A5A" d="M650 225C650 220 650 220 655 220H876C881 220 881 220 881 225V414C881 419 881 419 876 419H655C650 419 650 419 650 414V225m0 0C650 220 650 220 655 220H876C881 220 881 220 881 225V414C881 419 881 419 876 419H655C650 419 650 419 650 414V225" /><rect stroke="#5A5A5A" x="650" y="220" width="231" height="199" /><text transform="matrix(1 0 0 1 698 229)" fill="#3C3C3C" font-weight="bold" stroke="none"><desc xmlns:eadoc="http://www.siemens.com/eauml/doc"><eadoc:guid>EAID_D0F60B4B_30F4_4fe4_8362_172989F74286</eadoc:guid><eadoc:name>Requirement</eadoc:name><eadoc:type>Class</eadoc:type><eadoc:note>A condition demanded.
Additional Information:
Generic class representing any type of prerequisite that may be desired, needed or imposed as an obligation. The European Directive on services in the internal market&lt;sup&gt;1&lt;/sup&gt; defines requirement as any obligation, prohibition, condition or limit provided for in exercise of their legal autonomy [..]”.
Source: based on the Collins English Dictionary, accessed through TheFreeDictionary.com hub.-------------------------
&lt;sup&gt;1&lt;/sup&gt; See Directive  2006/123/EU, Article 4(7), ‘Requirements’.: &lt;a href="https://eur-lex.europa.eu/legal-content/EN/TXT/PDF/?uri=CELEX:32006L0123&amp;amp;from=EN"&gt;&lt;font color="#0000ff"&gt;&lt;u&gt;https://eur-lex.europa.eu/legal-content/EN/TXT/PDF/?uri=CELEX:32006L0123&amp;amp;from=EN&lt;/u&gt;&lt;/font&gt;&lt;/a&gt;.</eadoc:note></desc><tspan dx="0 " x="0" y="13">CCCEV_v2::Requirement</tspan></text><path stroke="#5A5A5A" d="M650 249H881" /><text transform="matrix(1 0 0 1 655 253)" fill="#854A2C" stroke="none"><tspan dx="0 " x="0" y="13">+ </tspan></text><text transform="matrix(1 0 0 1 676 253)" fill="#854A2C" stroke="none"><tspan dx="0 " x="0" y="13">d</tspan><tspan dx="0 " x="7" y="13">e</tspan><tspan dx="0 " x="13" y="13">s</tspan><tspan dx="0 " x="19" y="13">c</tspan><tspan dx="0 " x="25" y="13">r</tspan><tspan dx="0 " x="29" y="13">i</tspan><tspan dx="0 " x="32" y="13">p</tspan><tspan dx="0 0 " x="39" y="13">ti</tspan><tspan dx="0 " x="47" y="13">o</tspan><tspan dx="0 " x="53" y="13">n</tspan><tspan dx="0 " x="60" y="13">:</tspan><tspan dx="0 " x="63" y="13"> </tspan><tspan dx="0 " x="67" y="13">S</tspan><tspan dx="0 " x="72" y="13">t</tspan><tspan dx="0 " x="77" y="13">r</tspan><tspan dx="0 " x="81" y="13">i</tspan><tspan dx="0 " x="84" y="13">n</tspan><tspan dx="0 " x="91" y="13">g</tspan><tspan dx="0 " x="97" y="13"> </tspan><tspan dx="0 " x="101" y="13">[</tspan><tspan dx="0 " x="105" y="13">0</tspan><tspan dx="0 " x="112" y="13">.</tspan><tspan dx="0 " x="115" y="13">.</tspan><tspan dx="0 " x="118" y="13">*</tspan><tspan dx="0 " x="125" y="13">]</tspan></text><text transform="matrix(1 0 0 1 655 268)" fill="#854A2C" stroke="none"><tspan dx="0 " x="0" y="13">+ </tspan></text><text transform="matrix(1 0 0 1 676 268)" fill="#854A2C" stroke="none"><tspan dx="0 " x="0" y="13">i</tspan><tspan dx="0 " x="3" y="13">d</tspan><tspan dx="0 " x="10" y="13">e</tspan><tspan dx="0 " x="17" y="13">n</tspan><tspan dx="0 0 " x="23" y="13">ti</tspan><tspan dx="0 0 " x="31" y="13">fi</tspan><tspan dx="0 " x="38" y="13">e</tspan><tspan dx="0 " x="45" y="13">r</tspan><tspan dx="0 " x="49" y="13">:</tspan><tspan dx="0 " x="52" y="13"> </tspan><tspan dx="0 " x="56" y="13">L</tspan><tspan dx="0 " x="62" y="13">i</tspan><tspan dx="0 " x="65" y="13">t</tspan><tspan dx="0 " x="69" y="13">e</tspan><tspan dx="0 " x="76" y="13">r</tspan><tspan dx="0 " x="80" y="13">a</tspan><tspan dx="0 " x="87" y="13">l</tspan><tspan dx="0 " x="90" y="13"> </tspan><tspan dx="0 " x="93" y="13">[</tspan><tspan dx="0 " x="97" y="13">0</tspan><tspan dx="0 " x="104" y="13">.</tspan><tspan dx="0 " x="107" y="13">.</tspan><tspan dx="0 " x="111" y="13">*</tspan><tspan dx="0 " x="117" y="13">]</tspan></text><text transform="matrix(1 0 0 1 655 283)" fill="#854A2C" stroke="none"><tspan dx="0 " x="0" y="13">+ </tspan></text><text transform="matrix(1 0 0 1 676 283)" fill="#854A2C" stroke="none"><tspan dx="0 " x="0" y="13">name: String [0..*]</tspan></text><text transform="matrix(1 0 0 1 655 298)" fill="#854A2C" stroke="none"><tspan dx="0 " x="0" y="13">+ </tspan></text><text transform="matrix(1 0 0 1 676 298)" fill="#854A2C" stroke="none"><tspan dx="0 " x="0" y="13">type: Code [0..1]</tspan></text><path fill="#CACACA" stroke="none" d="M653 588C653 583 653 583 658 583H962C967 583 967 583 967 588v69C967 662 967 662 962 662H658C653 662 653 662 653 657V588" /><path stroke="none" fill="#FDFAF7" d="M650 585C650 580 650 580 655 580H959C964 580 964 580 964 585v69C964 659 964 659 959 659H655C650 659 650 659 650 654V585" /><path stroke="#5A5A5A" d="M650 585C650 580 650 580 655 580H959C964 580 964 580 964 585v69C964 659 964 659 959 659H655C650 659 650 659 650 654V585m0 0C650 580 650 580 655 580H959C964 580 964 580 964 585v69C964 659 964 659 959 659H655C650 659 650 659 650 654V585" /><rect stroke="#5A5A5A" x="650" y="580" width="314" height="79" /><text transform="matrix(1 0 0 1 751 589)" fill="#3C3C3C" font-weight="bold" stroke="none"><desc xmlns:eadoc="http://www.siemens.com/eauml/doc"><eadoc:guid>EAID_0D2F3FDD_683F_4121_868E_6F502993AD54</eadoc:guid><eadoc:name>Evidence</eadoc:name><eadoc:type>Class</eadoc:type><eadoc:note>The data proving that a requirement is met or has been fulfilled. 
Additional Information: 
Evidences are usually references to a record, or the record content itself, used to prove the veracity of a requirement fulfilment. The concept of 'record' herein is to be understood as it used for records management: a digital object that is considered final (e.g. not a working document) and cannot be altered.
Examples of evidences can be a stream of data value or values provided by a base registry, a structured official e-certificate issued by a public authority, an unstructured document (e.g. a PDF) provided by an authorised service provider acting on behalf of an authority, other.
Source: based on the ePO definition of Evidence.</eadoc:note></desc><tspan dx="0 " x="0" y="13">CCCEV_v2::Evidence</tspan></text><path stroke="#5A5A5A" d="M650 609H964" /><text transform="matrix(1 0 0 1 655 613)" fill="#854A2C" stroke="none"><tspan dx="0 " x="0" y="13">+ </tspan></text><text transform="matrix(1 0 0 1 676 613)" fill="#854A2C" stroke="none"><tspan dx="0 " x="0" y="13">c</tspan><tspan dx="0 " x="6" y="13">c</tspan><tspan dx="0 " x="12" y="13">c</tspan><tspan dx="0 " x="17" y="13">e</tspan><tspan dx="0 " x="24" y="13">v</tspan><tspan dx="0 " x="30" y="13">:</tspan><tspan dx="0 " x="33" y="13">c</tspan><tspan dx="0 " x="39" y="13">o</tspan><tspan dx="0 " x="46" y="13">n</tspan><tspan dx="0 0 " x="52" y="13">fi</tspan><tspan dx="0 " x="60" y="13">d</tspan><tspan dx="0 " x="67" y="13">e</tspan><tspan dx="0 " x="73" y="13">n</tspan><tspan dx="0 0 " x="80" y="13">ti</tspan><tspan dx="0 " x="87" y="13">a</tspan><tspan dx="0 " x="94" y="13">l</tspan><tspan dx="0 " x="97" y="13">i</tspan><tspan dx="0 " x="101" y="13">t</tspan><tspan dx="0 " x="105" y="13">y</tspan><tspan dx="0 " x="111" y="13">L</tspan><tspan dx="0 " x="117" y="13">e</tspan><tspan dx="0 " x="123" y="13">v</tspan><tspan dx="0 " x="129" y="13">e</tspan><tspan dx="0 " x="136" y="13">l</tspan><tspan dx="0 " x="139" y="13">T</tspan><tspan dx="0 " x="146" y="13">y</tspan><tspan dx="0 " x="152" y="13">p</tspan><tspan dx="0 " x="158" y="13">e</tspan><tspan dx="0 " x="165" y="13">:</tspan><tspan dx="0 " x="168" y="13"> </tspan><tspan dx="0 " x="172" y="13">C</tspan><tspan dx="0 " x="179" y="13">o</tspan><tspan dx="0 " x="186" y="13">d</tspan><tspan dx="0 " x="192" y="13">e</tspan><tspan dx="0 " x="199" y="13"> </tspan><tspan dx="0 " x="202" y="13">[</tspan><tspan dx="0 " x="207" y="13">0</tspan><tspan dx="0 " x="213" y="13">.</tspan><tspan dx="0 " x="217" y="13">.</tspan><tspan dx="0 " x="220" y="13">1</tspan><tspan dx="0 " x="227" y="13">]</tspan></text><path fill="#CACACA" stroke="none" d="M163 8C163 3 163 3 168 3H546C551 3 551 3 551 8V115C551 120 551 120 546 120H168C163 120 163 120 163 115V8" /><path stroke="none" fill="#FDFAF7" d="M160 5C160 0 160 0 165 0H543C548 0 548 0 548 5V112C548 117 548 117 543 117H165C160 117 160 117 160 112V5" /><path stroke="#5A5A5A" d="M160 5C160 0 160 0 165 0H543C548 0 548 0 548 5V112C548 117 548 117 543 117H165C160 117 160 117 160 112V5m0 0C160 0 160 0 165 0H543C548 0 548 0 548 5V112C548 117 548 117 543 117H165C160 117 160 117 160 112V5" /><rect stroke="#5A5A5A" x="160" y="0" width="388" height="117" /><text transform="matrix(1 0 0 1 299 9)" fill="#3C3C3C" font-weight="bold" stroke="none"><desc xmlns:eadoc="http://www.siemens.com/eauml/doc"><eadoc:guid>EAID_5AEB1932_C1D2_4ffe_A2E3_02C365A23074</eadoc:guid><eadoc:name>Criterion</eadoc:name><eadoc:type>Class</eadoc:type><eadoc:note>A condition for evaluation or assessment.
Additional Information:
In general, criteria are used for comparison, filtering and selection. Criteria usually set minimum constraints (e.g. limits, intervals, thresholds, etc.) that need to be met in order to pass the required conditions or to fulfil them in a certain degree or quality. The evaluation of the fulfilment is usually supported with the provision of evidences.
</eadoc:note></desc><tspan dx="0 " x="0" y="13">CCCEV_v2::Criterion</tspan></text><path stroke="#5A5A5A" d="M160 29H548" /><text transform="matrix(1 0 0 1 165 33)" fill="#854A2C" stroke="none"><tspan dx="0 " x="0" y="13">+ </tspan></text><text transform="matrix(1 0 0 1 186 33)" fill="#854A2C" stroke="none"><tspan dx="0 " x="0" y="13">cccev:bias: Decimal [0..*]</tspan></text><text transform="matrix(1 0 0 1 165 48)" fill="#854A2C" stroke="none"><tspan dx="0 " x="0" y="13">+ </tspan></text><text transform="matrix(1 0 0 1 186 48)" fill="#854A2C" stroke="none"><tspan dx="0 " x="0" y="13">cccev:weight: Decimal [0..1]</tspan></text><text transform="matrix(1 0 0 1 165 63)" fill="#854A2C" stroke="none"><tspan dx="0 " x="0" y="13">+ </tspan></text><text transform="matrix(1 0 0 1 186 63)" fill="#854A2C" stroke="none"><tspan dx="0 " x="0" y="13">c</tspan><tspan dx="0 " x="6" y="13">c</tspan><tspan dx="0 " x="12" y="13">c</tspan><tspan dx="0 " x="17" y="13">e</tspan><tspan dx="0 " x="24" y="13">v</tspan><tspan dx="0 " x="30" y="13">:</tspan><tspan dx="0 " x="33" y="13">w</tspan><tspan dx="0 " x="42" y="13">e</tspan><tspan dx="0 " x="49" y="13">i</tspan><tspan dx="0 " x="52" y="13">g</tspan><tspan dx="0 " x="59" y="13">h</tspan><tspan dx="0 0 " x="66" y="13">ti</tspan><tspan dx="0 " x="73" y="13">n</tspan><tspan dx="0 " x="80" y="13">g</tspan><tspan dx="0 " x="87" y="13">C</tspan><tspan dx="0 " x="94" y="13">o</tspan><tspan dx="0 " x="101" y="13">n</tspan><tspan dx="0 " x="107" y="13">s</tspan><tspan dx="0 " x="113" y="13">i</tspan><tspan dx="0 " x="117" y="13">d</tspan><tspan dx="0 " x="123" y="13">e</tspan><tspan dx="0 " x="130" y="13">r</tspan><tspan dx="0 " x="134" y="13">a</tspan><tspan dx="0 0 " x="141" y="13">ti</tspan><tspan dx="0 " x="148" y="13">o</tspan><tspan dx="0 " x="155" y="13">n</tspan><tspan dx="0 " x="162" y="13">D</tspan><tspan dx="0 " x="170" y="13">e</tspan><tspan dx="0 " x="177" y="13">s</tspan><tspan dx="0 " x="182" y="13">c</tspan><tspan dx="0 " x="188" y="13">r</tspan><tspan dx="0 " x="192" y="13">i</tspan><tspan dx="0 " x="196" y="13">p</tspan><tspan dx="0 0 " x="202" y="13">ti</tspan><tspan dx="0 " x="210" y="13">o</tspan><tspan dx="0 " x="217" y="13">n</tspan><tspan dx="0 " x="223" y="13">:</tspan><tspan dx="0 " x="227" y="13"> </tspan><tspan dx="0 " x="230" y="13">S</tspan><tspan dx="0 " x="236" y="13">t</tspan><tspan dx="0 " x="240" y="13">r</tspan><tspan dx="0 " x="244" y="13">i</tspan><tspan dx="0 " x="247" y="13">n</tspan><tspan dx="0 " x="254" y="13">g</tspan><tspan dx="0 " x="261" y="13"> </tspan><tspan dx="0 " x="264" y="13">[</tspan><tspan dx="0 " x="268" y="13">0</tspan><tspan dx="0 " x="275" y="13">.</tspan><tspan dx="0 " x="278" y="13">.</tspan><tspan dx="0 " x="282" y="13">1</tspan><tspan dx="0 " x="288" y="13">]</tspan></text><text transform="matrix(1 0 0 1 165 78)" fill="#854A2C" stroke="none"><tspan dx="0 " x="0" y="13">+ </tspan></text><text transform="matrix(1 0 0 1 186 78)" fill="#854A2C" stroke="none"><tspan dx="0 " x="0" y="13">c</tspan><tspan dx="0 " x="6" y="13">c</tspan><tspan dx="0 " x="12" y="13">c</tspan><tspan dx="0 " x="17" y="13">e</tspan><tspan dx="0 " x="24" y="13">v</tspan><tspan dx="0 " x="30" y="13">:</tspan><tspan dx="0 " x="33" y="13">w</tspan><tspan dx="0 " x="42" y="13">e</tspan><tspan dx="0 " x="49" y="13">i</tspan><tspan dx="0 " x="52" y="13">g</tspan><tspan dx="0 " x="59" y="13">h</tspan><tspan dx="0 0 " x="66" y="13">ti</tspan><tspan dx="0 " x="73" y="13">n</tspan><tspan dx="0 " x="80" y="13">g</tspan><tspan dx="0 " x="87" y="13">T</tspan><tspan dx="0 " x="93" y="13">y</tspan><tspan dx="0 " x="99" y="13">p</tspan><tspan dx="0 " x="106" y="13">e</tspan><tspan dx="0 " x="112" y="13">:</tspan><tspan dx="0 " x="116" y="13"> </tspan><tspan dx="0 " x="119" y="13">C</tspan><tspan dx="0 " x="127" y="13">o</tspan><tspan dx="0 " x="133" y="13">d</tspan><tspan dx="0 " x="140" y="13">e</tspan><tspan dx="0 " x="147" y="13"> </tspan><tspan dx="0 " x="150" y="13">[</tspan><tspan dx="0 " x="154" y="13">0</tspan><tspan dx="0 " x="161" y="13">.</tspan><tspan dx="0 " x="164" y="13">.</tspan><tspan dx="0 " x="167" y="13">1</tspan><tspan dx="0 " x="174" y="13">]</tspan></text><path fill="#CACACA" stroke="none" d="M793 8C793 3 793 3 798 3h89C892 3 892 3 892 8V77C892 82 892 82 887 82H798C793 82 793 82 793 77V8" /><path stroke="none" fill="#FDFAF7" d="M790 5C790 0 790 0 795 0h89C889 0 889 0 889 5V74C889 79 889 79 884 79H795C790 79 790 79 790 74V5" /><path stroke="#5A5A5A" d="M790 5C790 0 790 0 795 0h89C889 0 889 0 889 5V74C889 79 889 79 884 79H795C790 79 790 79 790 74V5m0 0C790 0 790 0 795 0h89C889 0 889 0 889 5V74C889 79 889 79 884 79H795C790 79 790 79 790 74V5" /><rect stroke="#5A5A5A" x="790" y="0" width="99" height="79" /><text transform="matrix(1 0 0 1 809 9)" fill="#3C3C3C" font-weight="bold" stroke="none"><desc xmlns:eadoc="http://www.siemens.com/eauml/doc"><eadoc:guid>EAID_D5E840D1_63A4_42a8_B3B6_376316BF956F</eadoc:guid><eadoc:name>Constraint</eadoc:name><eadoc:type>Class</eadoc:type><eadoc:note>Limitation applied to requirement(s) or to the concept(s) the requirement is about.
Additional Information:
An example in eProcurement, a threshold: the minimum Turnover required by the buyer to select the candidates.</eadoc:note></desc><tspan dx="0 " x="0" y="13">CCCEV_v2::</tspan><tspan dx="0 " x="1" y="28">Constraint</tspan></text><path fill="#CACACA" stroke="none" d="M1033 488C1033 483 1033 483 1038 483h89C1132 483 1132 483 1132 488v69C1132 562 1132 562 1127 562h-89C1033 562 1033 562 1033 557V488" /><path stroke="none" fill="#FDFAF7" d="M1030 485C1030 480 1030 480 1035 480h89C1129 480 1129 480 1129 485v69C1129 559 1129 559 1124 559h-89C1030 559 1030 559 1030 554V485" /><path stroke="#5A5A5A" d="M1030 485C1030 480 1030 480 1035 480h89C1129 480 1129 480 1129 485v69C1129 559 1129 559 1124 559h-89C1030 559 1030 559 1030 554V485m0 0C1030 480 1030 480 1035 480h89C1129 480 1129 480 1129 485v69C1129 559 1129 559 1124 559h-89C1030 559 1030 559 1030 554V485" /><rect stroke="#5A5A5A" x="1030" y="480" width="99" height="79" /><text transform="matrix(1 0 0 1 1048 489)" fill="#3C3C3C" font-weight="bold" stroke="none"><desc xmlns:eadoc="http://www.siemens.com/eauml/doc"><eadoc:guid>EAID_3C4A571F_B0FB_4506_902F_80FC1505C3A1</eadoc:guid><eadoc:name>Agent</eadoc:name><eadoc:type>Class</eadoc:type><eadoc:note></eadoc:note></desc><tspan dx="0 " x="0" y="13">foaf::Agent</tspan></text><path fill="#CACACA" stroke="none" d="M1152 248C1152 243 1152 243 1157 243h221C1383 243 1383 243 1383 248V407C1383 412 1383 412 1378 412H1157C1152 412 1152 412 1152 407V248" /><path stroke="none" fill="#FDFAF7" d="M1149 245C1149 240 1149 240 1154 240h221C1380 240 1380 240 1380 245V404C1380 409 1380 409 1375 409H1154C1149 409 1149 409 1149 404V245" /><path stroke="#5A5A5A" d="M1149 245C1149 240 1149 240 1154 240h221C1380 240 1380 240 1380 245V404C1380 409 1380 409 1375 409H1154C1149 409 1149 409 1149 404V245m0 0C1149 240 1149 240 1154 240h221C1380 240 1380 240 1380 245V404C1380 409 1380 409 1375 409H1154C1149 409 1149 409 1149 404V245" /><rect stroke="#5A5A5A" x="1149" y="240" width="231" height="169" /><text transform="matrix(1 0 0 1 1211 249)" fill="#3C3C3C" font-weight="bold" stroke="none"><desc xmlns:eadoc="http://www.siemens.com/eauml/doc"><eadoc:guid>EAID_23EF31EA_2FE3_47d8_B5F4_7EEC6759C173</eadoc:guid><eadoc:name>Concept</eadoc:name><eadoc:type>Class</eadoc:type><eadoc:note>A reference to an entity, i.e. a class or a property, which is defined in a known ontology or vocabulary.
Additional information:
A concept defined in the context of a Requirement must be unambiguous so there is no possibility of misinterpretation. Hence the use of qualified names (a pair {namespace, local name} is strongly recommended for the identification of the entity being referred to.</eadoc:note></desc><tspan dx="0 " x="0" y="13">CCCEV_v2::Concept</tspan></text><path stroke="#5A5A5A" d="M1149 269h231" /><text transform="matrix(1 0 0 1 1154 273)" fill="#854A2C" stroke="none"><tspan dx="0 " x="0" y="13">+ </tspan></text><text transform="matrix(1 0 0 1 1175 273)" fill="#854A2C" stroke="none"><tspan dx="0 " x="0" y="13">d</tspan><tspan dx="0 " x="7" y="13">e</tspan><tspan dx="0 " x="13" y="13">s</tspan><tspan dx="0 " x="19" y="13">c</tspan><tspan dx="0 " x="25" y="13">r</tspan><tspan dx="0 " x="29" y="13">i</tspan><tspan dx="0 " x="32" y="13">p</tspan><tspan dx="0 0 " x="39" y="13">ti</tspan><tspan dx="0 " x="47" y="13">o</tspan><tspan dx="0 " x="53" y="13">n</tspan><tspan dx="0 " x="60" y="13">:</tspan><tspan dx="0 " x="63" y="13"> </tspan><tspan dx="0 " x="67" y="13">S</tspan><tspan dx="0 " x="72" y="13">t</tspan><tspan dx="0 " x="77" y="13">r</tspan><tspan dx="0 " x="81" y="13">i</tspan><tspan dx="0 " x="84" y="13">n</tspan><tspan dx="0 " x="91" y="13">g</tspan><tspan dx="0 " x="97" y="13"> </tspan><tspan dx="0 " x="101" y="13">[</tspan><tspan dx="0 " x="105" y="13">0</tspan><tspan dx="0 " x="112" y="13">.</tspan><tspan dx="0 " x="115" y="13">.</tspan><tspan dx="0 " x="118" y="13">*</tspan><tspan dx="0 " x="125" y="13">]</tspan></text><text transform="matrix(1 0 0 1 1154 288)" fill="#854A2C" stroke="none"><tspan dx="0 " x="0" y="13">+ </tspan></text><text transform="matrix(1 0 0 1 1175 288)" fill="#854A2C" stroke="none"><tspan dx="0 " x="0" y="13">i</tspan><tspan dx="0 " x="3" y="13">d</tspan><tspan dx="0 " x="10" y="13">e</tspan><tspan dx="0 " x="17" y="13">n</tspan><tspan dx="0 0 " x="23" y="13">ti</tspan><tspan dx="0 0 " x="31" y="13">fi</tspan><tspan dx="0 " x="38" y="13">e</tspan><tspan dx="0 " x="45" y="13">r</tspan><tspan dx="0 " x="49" y="13">:</tspan><tspan dx="0 " x="52" y="13"> </tspan><tspan dx="0 " x="56" y="13">L</tspan><tspan dx="0 " x="62" y="13">i</tspan><tspan dx="0 " x="65" y="13">t</tspan><tspan dx="0 " x="69" y="13">e</tspan><tspan dx="0 " x="76" y="13">r</tspan><tspan dx="0 " x="80" y="13">a</tspan><tspan dx="0 " x="87" y="13">l</tspan><tspan dx="0 " x="90" y="13"> </tspan><tspan dx="0 " x="93" y="13">[</tspan><tspan dx="0 " x="97" y="13">0</tspan><tspan dx="0 " x="104" y="13">.</tspan><tspan dx="0 " x="107" y="13">.</tspan><tspan dx="0 " x="111" y="13">*</tspan><tspan dx="0 " x="117" y="13">]</tspan></text><text transform="matrix(1 0 0 1 1154 303)" fill="#854A2C" stroke="none"><tspan dx="0 " x="0" y="13">+ </tspan></text><text transform="matrix(1 0 0 1 1175 303)" fill="#854A2C" stroke="none"><tspan dx="0 " x="0" y="13">name: String [0..*]</tspan></text><text transform="matrix(1 0 0 1 1154 318)" fill="#854A2C" stroke="none"><tspan dx="0 " x="0" y="13">+ </tspan></text><text transform="matrix(1 0 0 1 1175 318)" fill="#854A2C" stroke="none"><tspan dx="0 " x="0" y="13">type: Code [0..1]</tspan></text><path fill="#CACACA" stroke="none" d="M23 588C23 583 23 583 28 583H351C356 583 356 583 356 588v69C356 662 356 662 351 662H28C23 662 23 662 23 657V588" /><path stroke="none" fill="#FDFAF7" d="M20 585C20 580 20 580 25 580H348C353 580 353 580 353 585v69C353 659 353 659 348 659H25C20 659 20 659 20 654V585" /><path stroke="#5A5A5A" d="M20 585C20 580 20 580 25 580H348C353 580 353 580 353 585v69C353 659 353 659 348 659H25C20 659 20 659 20 654V585m0 0C20 580 20 580 25 580H348C353 580 353 580 353 585v69C353 659 353 659 348 659H25C20 659 20 659 20 654V585" /><rect stroke="#5A5A5A" x="20" y="580" width="333" height="79" /><text transform="matrix(1 0 0 1 117 589)" fill="#3C3C3C" font-weight="bold" stroke="none"><desc xmlns:eadoc="http://www.siemens.com/eauml/doc"><eadoc:guid>EAID_2BDD1056_48D0_4362_B49E_07E7B5E306A0</eadoc:guid><eadoc:name>EvidenceType</eadoc:name><eadoc:type>Class</eadoc:type><eadoc:note>Information about the characteristics of an expected evidence, such as the desired content, format, source, etc.
Evidence types can be seen as ‘templates’ that actual evidences need to use to express the data that constitutes the proof.
</eadoc:note></desc><tspan dx="0 " x="0" y="13">CCCEV_v2::EvidenceType</tspan></text><path stroke="#5A5A5A" d="M20 609H353" /><text transform="matrix(1 0 0 1 25 613)" fill="#854A2C" stroke="none"><tspan dx="0 " x="0" y="13">+ </tspan></text><text transform="matrix(1 0 0 1 46 613)" fill="#854A2C" stroke="none"><tspan dx="0 " x="0" y="13">cccev:datasetType: Code [0..1]</tspan></text><text transform="matrix(1 0 0 1 25 628)" fill="#854A2C" stroke="none"><tspan dx="0 " x="0" y="13">+ </tspan></text><text transform="matrix(1 0 0 1 46 628)" fill="#854A2C" stroke="none"><tspan dx="0 " x="0" y="13">c</tspan><tspan dx="0 " x="6" y="13">c</tspan><tspan dx="0 " x="12" y="13">c</tspan><tspan dx="0 " x="17" y="13">e</tspan><tspan dx="0 " x="24" y="13">v</tspan><tspan dx="0 " x="30" y="13">:</tspan><tspan dx="0 " x="33" y="13">e</tspan><tspan dx="0 " x="40" y="13">v</tspan><tspan dx="0 " x="46" y="13">i</tspan><tspan dx="0 " x="49" y="13">d</tspan><tspan dx="0 " x="56" y="13">e</tspan><tspan dx="0 " x="62" y="13">n</tspan><tspan dx="0 " x="69" y="13">c</tspan><tspan dx="0 " x="75" y="13">e</tspan><tspan dx="0 " x="82" y="13">T</tspan><tspan dx="0 " x="88" y="13">y</tspan><tspan dx="0 " x="94" y="13">p</tspan><tspan dx="0 " x="101" y="13">e</tspan><tspan dx="0 " x="107" y="13">C</tspan><tspan dx="0 " x="115" y="13">l</tspan><tspan dx="0 " x="118" y="13">a</tspan><tspan dx="0 " x="125" y="13">s</tspan><tspan dx="0 " x="131" y="13">s</tspan><tspan dx="0 " x="137" y="13">i</tspan><tspan dx="0 0 " x="140" y="13">fi</tspan><tspan dx="0 " x="147" y="13">c</tspan><tspan dx="0 " x="153" y="13">a</tspan><tspan dx="0 0 " x="160" y="13">ti</tspan><tspan dx="0 " x="167" y="13">o</tspan><tspan dx="0 " x="174" y="13">n</tspan><tspan dx="0 " x="181" y="13">:</tspan><tspan dx="0 " x="184" y="13"> </tspan><tspan dx="0 " x="187" y="13">C</tspan><tspan dx="0 " x="195" y="13">o</tspan><tspan dx="0 " x="202" y="13">d</tspan><tspan dx="0 " x="208" y="13">e</tspan><tspan dx="0 " x="215" y="13"> </tspan><tspan dx="0 " x="218" y="13">[</tspan><tspan dx="0 " x="222" y="13">0</tspan><tspan dx="0 " x="229" y="13">.</tspan><tspan dx="0 " x="232" y="13">.</tspan><tspan dx="0 " x="236" y="13">1</tspan><tspan dx="0 " x="242" y="13">]</tspan></text><path fill="#CACACA" stroke="none" d="M23 188C23 183 23 183 28 183H170C175 183 175 183 175 188v69C175 262 175 262 170 262H28C23 262 23 262 23 257V188" /><path stroke="none" fill="#FDFAF7" d="M20 185C20 180 20 180 25 180H167C172 180 172 180 172 185v69C172 259 172 259 167 259H25C20 259 20 259 20 254V185" /><path stroke="#5A5A5A" d="M20 185C20 180 20 180 25 180H167C172 180 172 180 172 185v69C172 259 172 259 167 259H25C20 259 20 259 20 254V185m0 0C20 180 20 180 25 180H167C172 180 172 180 172 185v69C172 259 172 259 167 259H25C20 259 20 259 20 254V185" /><rect stroke="#5A5A5A" x="20" y="180" width="152" height="79" /><text transform="matrix(1 0 0 1 66 189)" fill="#3C3C3C" font-weight="bold" stroke="none"><desc xmlns:eadoc="http://www.siemens.com/eauml/doc"><eadoc:guid>EAID_785686A1_4364_47dc_8B5C_2DEE9760958E</eadoc:guid><eadoc:name>ReferenceFramework</eadoc:name><eadoc:type>Class</eadoc:type><eadoc:note>A source from where requirements are identified and drawn.
Additional Information
Usual reference frameworks are legal and non-legal specifications. Examples of reference frameworks can be, the ELI Legal Resources used for the BREG catalogue of datasets, the basis for the ISA2 CAMSS Scenarios such as the Regulation (EU) 1025/2012 or the EIF Framework, the European Directives used in e-Certis and the ESPD Implementing Regulation for the identification of exclusion grounds and selection criteria, a standard, a technical specification, etc. 
</eadoc:note></desc><tspan dx="0 " x="0" y="13">CCCEV_v2::</tspan><tspan dx="0 " x="-30" y="28">ReferenceFramework</tspan></text><path fill="#CACACA" stroke="none" d="M23 318C23 313 23 313 28 313H337C342 313 342 313 342 318v88C342 411 342 411 337 411H28C23 411 23 411 23 406V318" /><path stroke="none" fill="#FDFAF7" d="M20 315C20 310 20 310 25 310H334C339 310 339 310 339 315v88C339 408 339 408 334 408H25C20 408 20 408 20 403V315" /><path stroke="#5A5A5A" d="M20 315C20 310 20 310 25 310H334C339 310 339 310 339 315v88C339 408 339 408 334 408H25C20 408 20 408 20 403V315m0 0C20 310 20 310 25 310H334C339 310 339 310 339 315v88C339 408 339 408 334 408H25C20 408 20 408 20 403V315" /><rect stroke="#5A5A5A" x="20" y="310" width="319" height="98" /><text transform="matrix(1 0 0 1 101 319)" fill="#3C3C3C" font-weight="bold" stroke="none"><desc xmlns:eadoc="http://www.siemens.com/eauml/doc"><eadoc:guid>EAID_656C4155_7FD3_465e_AB71_F34F7F066D5F</eadoc:guid><eadoc:name>EvidenceTypeList</eadoc:name><eadoc:type>Class</eadoc:type><eadoc:note>A collection of types of evidences.
Additional information
The respondent of a &lt;i&gt;Requirement&lt;/i&gt; for which one or more types of evidences have been specified in an &lt;i&gt;EvidenceTypeList&lt;/i&gt; is expected to provide Evidence(s) conformant to that type of evidence.
This list is use to build "combinations" of assets; e.g., in a Request for Evidences you could have: List-1: EvidencType-1 AND EvidenceType-2 AND EvidenceType-3; OR List-2: EvidencType-1 AND EvidenceType-5 AND EvidenceType-4;


</eadoc:note></desc><tspan dx="0 " x="0" y="13">CCCEV_v2::EvidenceTypeList</tspan></text><path stroke="#5A5A5A" d="M20 339H339" /><text transform="matrix(1 0 0 1 25 343)" fill="#854A2C" stroke="none"><tspan dx="0 " x="0" y="13">+ </tspan></text><text transform="matrix(1 0 0 1 46 343)" fill="#854A2C" stroke="none"><tspan dx="0 " x="0" y="13">d</tspan><tspan dx="0 " x="7" y="13">e</tspan><tspan dx="0 " x="13" y="13">s</tspan><tspan dx="0 " x="19" y="13">c</tspan><tspan dx="0 " x="25" y="13">r</tspan><tspan dx="0 " x="29" y="13">i</tspan><tspan dx="0 " x="32" y="13">p</tspan><tspan dx="0 0 " x="39" y="13">ti</tspan><tspan dx="0 " x="47" y="13">o</tspan><tspan dx="0 " x="53" y="13">n</tspan><tspan dx="0 " x="60" y="13">:</tspan><tspan dx="0 " x="63" y="13"> </tspan><tspan dx="0 " x="67" y="13">S</tspan><tspan dx="0 " x="72" y="13">t</tspan><tspan dx="0 " x="77" y="13">r</tspan><tspan dx="0 " x="81" y="13">i</tspan><tspan dx="0 " x="84" y="13">n</tspan><tspan dx="0 " x="91" y="13">g</tspan><tspan dx="0 " x="97" y="13"> </tspan><tspan dx="0 " x="101" y="13">[</tspan><tspan dx="0 " x="105" y="13">0</tspan><tspan dx="0 " x="112" y="13">.</tspan><tspan dx="0 " x="115" y="13">.</tspan><tspan dx="0 " x="118" y="13">*</tspan><tspan dx="0 " x="125" y="13">]</tspan></text><text transform="matrix(1 0 0 1 25 358)" fill="#854A2C" stroke="none"><tspan dx="0 " x="0" y="13">+ </tspan></text><text transform="matrix(1 0 0 1 46 358)" fill="#854A2C" stroke="none"><tspan dx="0 " x="0" y="13">i</tspan><tspan dx="0 " x="3" y="13">d</tspan><tspan dx="0 " x="10" y="13">e</tspan><tspan dx="0 " x="17" y="13">n</tspan><tspan dx="0 0 " x="23" y="13">ti</tspan><tspan dx="0 0 " x="31" y="13">fi</tspan><tspan dx="0 " x="38" y="13">e</tspan><tspan dx="0 " x="45" y="13">r</tspan><tspan dx="0 " x="49" y="13">:</tspan><tspan dx="0 " x="52" y="13"> </tspan><tspan dx="0 " x="56" y="13">L</tspan><tspan dx="0 " x="62" y="13">i</tspan><tspan dx="0 " x="65" y="13">t</tspan><tspan dx="0 " x="69" y="13">e</tspan><tspan dx="0 " x="76" y="13">r</tspan><tspan dx="0 " x="80" y="13">a</tspan><tspan dx="0 " x="87" y="13">l</tspan><tspan dx="0 " x="90" y="13"> </tspan><tspan dx="0 " x="93" y="13">[</tspan><tspan dx="0 " x="97" y="13">0</tspan><tspan dx="0 " x="104" y="13">.</tspan><tspan dx="0 " x="107" y="13">.</tspan><tspan dx="0 " x="111" y="13">1</tspan><tspan dx="0 " x="117" y="13">]</tspan></text><text transform="matrix(1 0 0 1 25 373)" fill="#854A2C" stroke="none"><tspan dx="0 " x="0" y="13">+ </tspan></text><text transform="matrix(1 0 0 1 46 373)" fill="#854A2C" stroke="none"><tspan dx="0 " x="0" y="13">name: String [0..*]</tspan></text><path fill="#CACACA" stroke="none" d="M1213 578C1213 573 1213 573 1218 573h152C1375 573 1375 573 1375 578v69C1375 652 1375 652 1370 652H1218C1213 652 1213 652 1213 647V578" /><path stroke="none" fill="#FDFAF7" d="M1210 575C1210 570 1210 570 1215 570h152C1372 570 1372 570 1372 575v69C1372 649 1372 649 1367 649H1215C1210 649 1210 649 1210 644V575" /><path stroke="#5A5A5A" d="M1210 575C1210 570 1210 570 1215 570h152C1372 570 1372 570 1372 575v69C1372 649 1372 649 1367 649H1215C1210 649 1210 649 1210 644V575m0 0C1210 570 1210 570 1215 570h152C1372 570 1372 570 1372 575v69C1372 649 1372 649 1367 649H1215C1210 649 1210 649 1210 644V575" /><rect stroke="#5A5A5A" x="1210" y="570" width="162" height="79" /><text transform="matrix(1 0 0 1 1228 579)" fill="#3C3C3C" font-weight="bold" stroke="none"><desc xmlns:eadoc="http://www.siemens.com/eauml/doc"><eadoc:guid>EAID_C8C56DAC_1A06_4ad4_9ADE_DE143451B0F2</eadoc:guid><eadoc:name>cccev:SupportedValue</eadoc:name><eadoc:type>Class</eadoc:type><eadoc:note></eadoc:note></desc><tspan dx="0 " x="0" y="13">cccev:SupportedValue</tspan></text><path stroke="#5A5A5A" d="M1210 599h162" /><text transform="matrix(1 0 0 1 1215 603)" fill="#854A2C" stroke="none"><tspan dx="0 " x="0" y="13">- </tspan></text><text transform="matrix(1 0 0 1 1236 603)" fill="#854A2C" stroke="none"><tspan dx="0 " x="0" y="13">cccev:query: Literal</tspan></text><text transform="matrix(1 0 0 1 1215 618)" fill="#854A2C" stroke="none"><tspan dx="0 " x="0" y="13">- </tspan></text><text transform="matrix(1 0 0 1 1236 618)" fill="#854A2C" stroke="none"><tspan dx="0 " x="0" y="13">cccev:value: Literal</tspan></text><path fill="#CACACA" stroke="none" d="M743 778C743 773 743 773 748 773H866C871 773 871 773 871 778v69C871 852 871 852 866 852H748C743 852 743 852 743 847V778" /><path stroke="none" fill="#FDFAF7" d="M740 775C740 770 740 770 745 770H863C868 770 868 770 868 775v69C868 849 868 849 863 849H745C740 849 740 849 740 844V775" /><path stroke="#5A5A5A" d="M740 775C740 770 740 770 745 770H863C868 770 868 770 868 775v69C868 849 868 849 863 849H745C740 849 740 849 740 844V775m0 0C740 770 740 770 745 770H863C868 770 868 770 868 775v69C868 849 868 849 863 849H745C740 849 740 849 740 844V775" /><rect stroke="#5A5A5A" x="740" y="770" width="128" height="79" /><text transform="matrix(1 0 0 1 767 779)" fill="#3C3C3C" font-weight="bold" stroke="none"><desc xmlns:eadoc="http://www.siemens.com/eauml/doc"><eadoc:guid>EAID_53F59CE9_8044_4e39_A343_A35AAA542A46</eadoc:guid><eadoc:name>Dataset</eadoc:name><eadoc:type>Class</eadoc:type><eadoc:note>The latest version 2.2 relates one Dataset to another through the inherited axioms "dcat:Resource dcat:qualifiedRelation dcat:Relationship" and "dcat:Relationship dct:relation dcat:Dataset".</eadoc:note></desc><tspan dx="0 " x="0" y="13">dcat::Dataset</tspan></text><path fill="#CACACA" stroke="none" d="M592 8C592 3 592 3 597 3H765C770 3 770 3 770 8V77C770 82 770 82 765 82H597C592 82 592 82 592 77V8" /><path stroke="none" fill="#FDFAF7" d="M589 5C589 0 589 0 594 0H762C767 0 767 0 767 5V74C767 79 767 79 762 79H594C589 79 589 79 589 74V5" /><path stroke="#5A5A5A" d="M589 5C589 0 589 0 594 0H762C767 0 767 0 767 5V74C767 79 767 79 762 79H594C589 79 589 79 589 74V5m0 0C589 0 589 0 594 0H762C767 0 767 0 767 5V74C767 79 767 79 762 79H594C589 79 589 79 589 74V5" /><rect stroke="#5A5A5A" x="589" y="0" width="178" height="79" /><text transform="matrix(1 0 0 1 648 9)" fill="#3C3C3C" font-weight="bold" stroke="none"><tspan dx="0 " x="0" y="13">CCCEV_v2::</tspan></text><text transform="matrix(1 0 0 1 607 24)" fill="#3C3C3C" font-weight="bold" stroke="none"><desc xmlns:eadoc="http://www.siemens.com/eauml/doc"><eadoc:guid>EAID_2A688AB9_5233_4408_BEBF_E8344D7ADDA1</eadoc:guid><eadoc:name>InformationRequirement</eadoc:name><eadoc:type>Class</eadoc:type><eadoc:note>A request for data that is proof of evidence or leads to the source of such a proof.

Additional Information:

The response to an information requirement is an evidence when the issuer of the response is an authoritative source (a.k.a. ‘source of truth’, e.g. a Civil Registry providing data about a natural person for the provision of public service through the Single Digital Gateway). In other cases the responses might not be issued by an authoritative source but the issuer supports the responses with evidences (or commits to support them timely, e.g. a self-declaration or a declaration of oath).</eadoc:note></desc><tspan dx="0 " x="0" y="13">I</tspan><tspan dx="0 " x="3" y="13">n</tspan><tspan dx="0 " x="11" y="13">f</tspan><tspan dx="0 " x="15" y="13">o</tspan><tspan dx="0 " x="22" y="13">r</tspan><tspan dx="0 " x="27" y="13">m</tspan><tspan dx="0 " x="38" y="13">a</tspan><tspan dx="0 0 " x="45" y="13">ti</tspan><tspan dx="0 " x="53" y="13">o</tspan><tspan dx="0 " x="61" y="13">n</tspan><tspan dx="0 " x="68" y="13">R</tspan><tspan dx="0 " x="76" y="13">e</tspan><tspan dx="0 " x="82" y="13">q</tspan><tspan dx="0 " x="90" y="13">u</tspan><tspan dx="0 " x="97" y="13">i</tspan><tspan dx="0 " x="101" y="13">r</tspan><tspan dx="0 " x="106" y="13">e</tspan><tspan dx="0 " x="112" y="13">m</tspan><tspan dx="0 " x="123" y="13">e</tspan><tspan dx="0 " x="130" y="13">n</tspan><tspan dx="0 " x="137" y="13">t</tspan></text><path stroke="#696969" d="M829 80L792 220" /><path stroke="#696969" fill="#F7DDB4" d="M790 203l12 3l-10 14l-2 -17" /><path stroke="#696969" d="M882 320h150m0 0V305m0 0H882m0 0l15 -6m-15 6l15 6m-15 9l15 6m-15 -6l15 -6" /><path stroke="#696969" d="M846 420v75m0 0h184m0 0l-15 6m15 -6l-15 -6" /><path stroke="#696969" d="M650 249H173m0 0l15 -6m-15 6l15 6" /><path stroke="#696969" d="M650 620H354m0 0l15 -6m-15 6l15 6" /><path stroke="#696969" d="M180 409V580m0 0l-6 -15m6 15l6 -15" /><path stroke="#696969" d="M180 409l-6 15m6 -15l6 15" /><path stroke="#696969" d="M549 118L709 220" /><path stroke="#696969" fill="#F7DDB4" d="M692 216l7 -10l10 14l-17 -4" /><path stroke="#696969" stroke-dasharray="7,4" d="M1024 259L885 259" /><path stroke="#696969" d="M1024 244v7m0 4v4" /><path stroke="#696969" stroke-dasharray="7,4" d="M882 244L1021 244" /><path stroke="#696969" d="M882 244l15 -5m-15 5l15 5" /><path stroke="#696969" d="M843 580V540m0 0h187m0 0l-15 6m15 -6l-15 -6" /><path stroke="#696969" d="M650 327H340m0 0l15 -6m-15 6l15 6" /><path stroke="#696969" d="M806 660l-2 110" /><path stroke="#696969" fill="#F7DDB4" d="M798 754h12l-6 16l-6 -16" /><path stroke="#696969" d="M1287 570V410m0 0l6 15m-6 -15l-6 15" /><path stroke="#696969" d="M715 420V580m0 0l-6 -15m6 15l6 -15" /><path stroke="#696969" d="M715 420l-6 15m6 -15l6 15" /><path stroke="#696969" d="M965 635h245m0 0l-15 6m15 -6l-15 -6" /><path stroke="#696969" d="M1268 240V80m0 0H890" /><path stroke="#696969" d="M1268 240l6 -15m-6 15l-6 -15" /><path stroke="#696969" d="M965 595h210m0 0V410m0 0l6 15m-6 -15l-6 15" /><path stroke="#696969" d="M882 368h267m0 0l-15 6m15 -6l-15 -6" /><path stroke="#696969" d="M690 80l44 140" /><path stroke="#696969" fill="#F7DDB4" d="M723 207l12 -4l-1 17L723 207" /><g transform="matrix(1 0 0 -1 176 229)"><rect fill="#FFFFFF" stroke="none" x="0" width="117" y="-16" height="16" /></g><text transform="matrix(1 0 0 1 176 229)" fill="#3C3C3C" stroke="none"><tspan dx="0 " x="0" y="13">+cccev:isDerivedFrom</tspan></text><g transform="matrix(1 0 0 -1 176 254)"><rect fill="#FFFFFF" stroke="none" x="0" width="20" y="-16" height="16" /></g><text transform="matrix(1 0 0 1 176 254)" fill="#3C3C3C" stroke="none"><tspan dx="0 " x="0" y="13">0..*</tspan></text><g transform="matrix(1 0 0 -1 1164 221)"><rect fill="#FFFFFF" stroke="none" x="0" width="100" y="-16" height="16" /></g><text transform="matrix(1 0 0 1 1164 221)" fill="#3C3C3C" stroke="none"><tspan dx="0 " x="0" y="13">+cccev:constraints</tspan></text><g transform="matrix(1 0 0 -1 1223 474)"><rect fill="#FFFFFF" stroke="none" x="0" width="127" y="-16" height="16" /></g><text transform="matrix(1 0 0 1 1223 474)" fill="#3C3C3C" stroke="none"><tspan dx="0 " x="0" y="13">cccev:providesValueFor</tspan></text><g transform="matrix(1 0 0 -1 1299 415)"><rect fill="#FFFFFF" stroke="none" x="0" width="20" y="-16" height="16" /></g><text transform="matrix(1 0 0 1 1299 415)" fill="#3C3C3C" stroke="none"><tspan dx="0 " x="0" y="13">0..*</tspan></text><g transform="matrix(1 0 0 -1 1043 348)"><rect fill="#FFFFFF" stroke="none" x="0" width="103" y="-16" height="16" /></g><text transform="matrix(1 0 0 1 1043 348)" fill="#3C3C3C" stroke="none"><tspan dx="0 " x="0" y="13">+cccev:hasConcept</tspan></text><g transform="matrix(1 0 0 -1 1127 373)"><rect fill="#FFFFFF" stroke="none" x="0" width="20" y="-16" height="16" /></g><text transform="matrix(1 0 0 1 1127 373)" fill="#3C3C3C" stroke="none"><tspan dx="0 " x="0" y="13">0..*</tspan></text><g transform="matrix(1 0 0 -1 887 331)"><rect fill="#FFFFFF" stroke="none" x="0" width="155" y="-16" height="16" /></g><text transform="matrix(1 0 0 1 887 331)" fill="#3C3C3C" stroke="none"><tspan dx="0 " x="0" y="13">+cccev:isRequirementOf 0..*</tspan></text><g transform="matrix(1 0 0 -1 915 276)"><rect fill="#FFFFFF" stroke="none" x="0" width="152" y="-16" height="16" /></g><text transform="matrix(1 0 0 1 915 276)" fill="#3C3C3C" stroke="none"><tspan dx="0 " x="0" y="13">+cccev:hasRequirement 0..*</tspan></text><g transform="matrix(1 0 0 -1 343 307)"><rect fill="#FFFFFF" stroke="none" x="0" width="221" y="-16" height="16" /></g><text transform="matrix(1 0 0 1 343 307)" fill="#3C3C3C" stroke="none"><tspan dx="0 " x="0" y="13">+</tspan><tspan dx="0 " x="7" y="13">c</tspan><tspan dx="0 " x="12" y="13">c</tspan><tspan dx="0 " x="18" y="13">c</tspan><tspan dx="0 " x="24" y="13">e</tspan><tspan dx="0 " x="31" y="13">v</tspan><tspan dx="0 " x="37" y="13">:</tspan><tspan dx="0 " x="40" y="13">h</tspan><tspan dx="0 " x="47" y="13">a</tspan><tspan dx="0 " x="53" y="13">s</tspan><tspan dx="0 " x="59" y="13">E</tspan><tspan dx="0 " x="66" y="13">v</tspan><tspan dx="0 " x="72" y="13">i</tspan><tspan dx="0 " x="75" y="13">d</tspan><tspan dx="0 " x="82" y="13">e</tspan><tspan dx="0 " x="88" y="13">n</tspan><tspan dx="0 " x="95" y="13">c</tspan><tspan dx="0 " x="101" y="13">e</tspan><tspan dx="0 " x="107" y="13">T</tspan><tspan dx="0 " x="114" y="13">y</tspan><tspan dx="0 " x="120" y="13">p</tspan><tspan dx="0 " x="127" y="13">e</tspan><tspan dx="0 " x="133" y="13">C</tspan><tspan dx="0 " x="141" y="13">o</tspan><tspan dx="0 " x="147" y="13">m</tspan><tspan dx="0 " x="157" y="13">b</tspan><tspan dx="0 " x="164" y="13">i</tspan><tspan dx="0 " x="167" y="13">n</tspan><tspan dx="0 " x="174" y="13">a</tspan><tspan dx="0 0 " x="181" y="13">ti</tspan><tspan dx="0 " x="188" y="13">o</tspan><tspan dx="0 " x="195" y="13">n</tspan><tspan dx="0 " x="202" y="13">L</tspan><tspan dx="0 " x="207" y="13">i</tspan><tspan dx="0 " x="211" y="13">s</tspan><tspan dx="0 " x="217" y="13">t</tspan></text><g transform="matrix(1 0 0 -1 343 332)"><rect fill="#FFFFFF" stroke="none" x="0" width="20" y="-16" height="16" /></g><text transform="matrix(1 0 0 1 343 332)" fill="#3C3C3C" stroke="none"><tspan dx="0 " x="0" y="13">0..*</tspan></text><g transform="matrix(1 0 0 -1 1032 619)"><rect fill="#FFFFFF" stroke="none" x="0" width="111" y="-16" height="16" /></g><text transform="matrix(1 0 0 1 1032 619)" fill="#3C3C3C" stroke="none"><tspan dx="0 " x="0" y="13">cccev:supportsValue</tspan></text><g transform="matrix(1 0 0 -1 1188 640)"><rect fill="#FFFFFF" stroke="none" x="0" width="20" y="-16" height="16" /></g><text transform="matrix(1 0 0 1 1188 640)" fill="#3C3C3C" stroke="none"><tspan dx="0 " x="0" y="13">0..*</tspan></text><g transform="matrix(1 0 0 -1 927 223)"><rect fill="#FFFFFF" stroke="none" x="0" width="177" y="-16" height="16" /></g><text transform="matrix(1 0 0 1 927 223)" fill="#3C3C3C" stroke="none"><tspan dx="0 " x="0" y="13">+</tspan><tspan dx="0 " x="7" y="13">c</tspan><tspan dx="0 " x="12" y="13">c</tspan><tspan dx="0 " x="18" y="13">c</tspan><tspan dx="0 " x="24" y="13">e</tspan><tspan dx="0 " x="31" y="13">v</tspan><tspan dx="0 " x="37" y="13">:</tspan><tspan dx="0 " x="40" y="13">h</tspan><tspan dx="0 " x="47" y="13">a</tspan><tspan dx="0 " x="53" y="13">s</tspan><tspan dx="0 " x="59" y="13">Q</tspan><tspan dx="0 " x="68" y="13">u</tspan><tspan dx="0 " x="75" y="13">a</tspan><tspan dx="0 " x="82" y="13">l</tspan><tspan dx="0 " x="85" y="13">i</tspan><tspan dx="0 0 " x="88" y="13">fi</tspan><tspan dx="0 " x="96" y="13">e</tspan><tspan dx="0 " x="102" y="13">d</tspan><tspan dx="0 " x="109" y="13">R</tspan><tspan dx="0 " x="117" y="13">e</tspan><tspan dx="0 " x="123" y="13">l</tspan><tspan dx="0 " x="127" y="13">a</tspan><tspan dx="0 0 " x="133" y="13">ti</tspan><tspan dx="0 " x="141" y="13">o</tspan><tspan dx="0 " x="147" y="13">n</tspan><tspan dx="0 " x="154" y="13"> </tspan><tspan dx="0 " x="157" y="13">0</tspan><tspan dx="0 " x="164" y="13">.</tspan><tspan dx="0 " x="167" y="13">.</tspan><tspan dx="0 " x="171" y="13">*</tspan></text><g transform="matrix(1 0 0 -1 357 600)"><rect fill="#FFFFFF" stroke="none" x="0" width="126" y="-16" height="16" /></g><text transform="matrix(1 0 0 1 357 600)" fill="#3C3C3C" stroke="none"><tspan dx="0 " x="0" y="13">+cccev:isConformantTo</tspan></text><g transform="matrix(1 0 0 -1 357 625)"><rect fill="#FFFFFF" stroke="none" x="0" width="20" y="-16" height="16" /></g><text transform="matrix(1 0 0 1 357 625)" fill="#3C3C3C" stroke="none"><tspan dx="0 " x="0" y="13">0..*</tspan></text><g transform="matrix(1 0 0 -1 946 520)"><rect fill="#FFFFFF" stroke="none" x="0" width="81" y="-16" height="16" /></g><text transform="matrix(1 0 0 1 946 520)" fill="#3C3C3C" stroke="none"><tspan dx="0 " x="0" y="13">+cccev:isAbout</tspan></text><g transform="matrix(1 0 0 -1 1008 545)"><rect fill="#FFFFFF" stroke="none" x="0" width="20" y="-16" height="16" /></g><text transform="matrix(1 0 0 1 1008 545)" fill="#3C3C3C" stroke="none"><tspan dx="0 " x="0" y="13">0..*</tspan></text><g transform="matrix(1 0 0 -1 619 425)"><rect fill="#FFFFFF" stroke="none" x="0" width="87" y="-16" height="16" /></g><text transform="matrix(1 0 0 1 619 425)" fill="#3C3C3C" stroke="none"><tspan dx="0 " x="0" y="13">+cccev:supports</tspan></text><g transform="matrix(1 0 0 -1 723 425)"><rect fill="#FFFFFF" stroke="none" x="0" width="20" y="-16" height="16" /></g><text transform="matrix(1 0 0 1 723 425)" fill="#3C3C3C" stroke="none"><tspan dx="0 " x="0" y="13">0..*</tspan></text><g transform="matrix(1 0 0 -1 541 560)"><rect fill="#FFFFFF" stroke="none" x="0" width="165" y="-16" height="16" /></g><text transform="matrix(1 0 0 1 541 560)" fill="#3C3C3C" stroke="none"><tspan dx="0 " x="0" y="13">+</tspan><tspan dx="0 " x="7" y="13">c</tspan><tspan dx="0 " x="12" y="13">c</tspan><tspan dx="0 " x="18" y="13">c</tspan><tspan dx="0 " x="24" y="13">e</tspan><tspan dx="0 " x="31" y="13">v</tspan><tspan dx="0 " x="37" y="13">:</tspan><tspan dx="0 " x="40" y="13">h</tspan><tspan dx="0 " x="47" y="13">a</tspan><tspan dx="0 " x="53" y="13">s</tspan><tspan dx="0 " x="59" y="13">S</tspan><tspan dx="0 " x="65" y="13">u</tspan><tspan dx="0 " x="72" y="13">p</tspan><tspan dx="0 " x="78" y="13">p</tspan><tspan dx="0 " x="85" y="13">o</tspan><tspan dx="0 " x="92" y="13">r</tspan><tspan dx="0 0 " x="96" y="13">ti</tspan><tspan dx="0 " x="103" y="13">n</tspan><tspan dx="0 " x="110" y="13">g</tspan><tspan dx="0 " x="117" y="13">E</tspan><tspan dx="0 " x="123" y="13">v</tspan><tspan dx="0 " x="129" y="13">i</tspan><tspan dx="0 " x="132" y="13">d</tspan><tspan dx="0 " x="139" y="13">e</tspan><tspan dx="0 " x="146" y="13">n</tspan><tspan dx="0 " x="152" y="13">c</tspan><tspan dx="0 " x="158" y="13">e</tspan></text><g transform="matrix(1 0 0 -1 723 560)"><rect fill="#FFFFFF" stroke="none" x="0" width="20" y="-16" height="16" /></g><text transform="matrix(1 0 0 1 723 560)" fill="#3C3C3C" stroke="none"><tspan dx="0 " x="0" y="13">0..*</tspan></text><g transform="matrix(1 0 0 -1 1035 415)"><rect fill="#FFFFFF" stroke="none" x="0" width="131" y="-16" height="16" /></g><text transform="matrix(1 0 0 1 1035 415)" fill="#3C3C3C" stroke="none"><tspan dx="0 " x="0" y="13">+cccev:supportsConcept</tspan></text><g transform="matrix(1 0 0 -1 1187 415)"><rect fill="#FFFFFF" stroke="none" x="0" width="20" y="-16" height="16" /></g><text transform="matrix(1 0 0 1 1187 415)" fill="#3C3C3C" stroke="none"><tspan dx="0 " x="0" y="13">0..*</tspan></text><g transform="matrix(1 0 0 -1 207 414)"><rect fill="#FFFFFF" stroke="none" x="0" width="108" y="-16" height="16" /></g><text transform="matrix(1 0 0 1 207 414)" fill="#3C3C3C" stroke="none"><tspan dx="0 " x="0" y="13">+</tspan><tspan dx="0 " x="7" y="13">c</tspan><tspan dx="0 " x="12" y="13">c</tspan><tspan dx="0 " x="18" y="13">c</tspan><tspan dx="0 " x="24" y="13">e</tspan><tspan dx="0 " x="31" y="13">v</tspan><tspan dx="0 " x="37" y="13">:</tspan><tspan dx="0 " x="40" y="13">i</tspan><tspan dx="0 " x="43" y="13">s</tspan><tspan dx="0 " x="49" y="13">S</tspan><tspan dx="0 " x="55" y="13">p</tspan><tspan dx="0 " x="62" y="13">e</tspan><tspan dx="0 " x="68" y="13">c</tspan><tspan dx="0 " x="74" y="13">i</tspan><tspan dx="0 0 " x="77" y="13">fi</tspan><tspan dx="0 " x="85" y="13">e</tspan><tspan dx="0 " x="92" y="13">d</tspan><tspan dx="0 " x="98" y="13">I</tspan><tspan dx="0 " x="102" y="13">n</tspan></text><g transform="matrix(1 0 0 -1 147 416)"><rect fill="#FFFFFF" stroke="none" x="0" width="20" y="-16" height="16" /></g><text transform="matrix(1 0 0 1 147 416)" fill="#3C3C3C" stroke="none"><tspan dx="0 " x="0" y="13">0..*</tspan></text><g transform="matrix(1 0 0 -1 227 560)"><rect fill="#FFFFFF" stroke="none" x="0" width="162" y="-16" height="16" /></g><text transform="matrix(1 0 0 1 227 560)" fill="#3C3C3C" stroke="none"><tspan dx="0 " x="0" y="13">+</tspan><tspan dx="0 " x="7" y="13">c</tspan><tspan dx="0 " x="12" y="13">c</tspan><tspan dx="0 " x="18" y="13">c</tspan><tspan dx="0 " x="24" y="13">e</tspan><tspan dx="0 " x="31" y="13">v</tspan><tspan dx="0 " x="37" y="13">:</tspan><tspan dx="0 " x="40" y="13">s</tspan><tspan dx="0 " x="46" y="13">p</tspan><tspan dx="0 " x="52" y="13">e</tspan><tspan dx="0 " x="59" y="13">c</tspan><tspan dx="0 " x="65" y="13">i</tspan><tspan dx="0 0 " x="68" y="13">fi</tspan><tspan dx="0 " x="76" y="13">e</tspan><tspan dx="0 " x="82" y="13">s</tspan><tspan dx="0 " x="88" y="13">E</tspan><tspan dx="0 " x="95" y="13">v</tspan><tspan dx="0 " x="101" y="13">i</tspan><tspan dx="0 " x="104" y="13">d</tspan><tspan dx="0 " x="111" y="13">e</tspan><tspan dx="0 " x="117" y="13">n</tspan><tspan dx="0 " x="124" y="13">c</tspan><tspan dx="0 " x="130" y="13">e</tspan><tspan dx="0 " x="137" y="13">T</tspan><tspan dx="0 " x="143" y="13">y</tspan><tspan dx="0 " x="149" y="13">p</tspan><tspan dx="0 " x="156" y="13">e</tspan></text><g transform="matrix(1 0 0 -1 148 560)"><rect fill="#FFFFFF" stroke="none" x="0" width="20" y="-16" height="16" /></g><text transform="matrix(1 0 0 1 148 560)" fill="#3C3C3C" stroke="none"><tspan dx="0 " x="0" y="13">0..*</tspan></text><g transform="matrix(1 0 0 -1 897 479)"><rect fill="#FFFFFF" stroke="none" x="0" width="82" y="-16" height="16" /></g><text transform="matrix(1 0 0 1 897 479)" fill="#3C3C3C" stroke="none"><tspan dx="0 " x="0" y="13">cccev:issuedBy</tspan></text><g transform="matrix(1 0 0 -1 1008 500)"><rect fill="#FFFFFF" stroke="none" x="0" width="20" y="-16" height="16" /></g><text transform="matrix(1 0 0 1 1008 500)" fill="#3C3C3C" stroke="none"><tspan dx="0 " x="0" y="13">0..*</tspan></text></g></g></g></g></svg>